<?xml version="1.0" encoding="UTF-8" standalone="no"?>
<!DOCTYPE svg PUBLIC "-//W3C//DTD SVG 1.1//EN" "http://www.w3.org/Graphics/SVG/1.1/DTD/svg11.dtd">
<svg width="100%" height="100%" viewBox="0 0 64 64" version="1.1" xmlns="http://www.w3.org/2000/svg" xmlns:xlink="http://www.w3.org/1999/xlink" xml:space="preserve" xmlns:serif="http://www.serif.com/" style="fill-rule:evenodd;clip-rule:evenodd;stroke-linejoin:round;stroke-miterlimit:2;">
    <g transform="matrix(1,0,0,1,1,0)">
        <g transform="matrix(0.166667,0,0,4.25,34.6667,18.5)">
            <path d="M62,2.471C62,2.346 60.736,2.226 58.485,2.138C56.235,2.05 53.183,2 50,2C39.543,2 24.457,2 14,2C10.817,2 7.765,2.05 5.515,2.138C3.264,2.226 2,2.346 2,2.471C2,3.528 2,6 2,6L62,6L62,2.471Z"/>
        </g>
        <g transform="matrix(0.233333,0,0,0.75,33.5333,24.5)">
            <path d="M62,4.313C62,2.986 58.863,1.861 54.641,1.673C45.759,1.278 32,0.667 32,0.667C32,0.667 18.241,1.278 9.359,1.673C5.137,1.861 2,2.986 2,4.313C2,5.198 2,6 2,6L62,6L62,4.313Z"/>
        </g>
        <g transform="matrix(-0.5,0,0,2.125,47,-63.25)">
            <path d="M24,50L16,50L16,57.059C16,57.308 16.421,57.548 17.172,57.724C17.922,57.901 18.939,58 20,58C20,58 20,58 20,58C21.061,58 22.078,57.901 22.828,57.724C23.579,57.548 24,57.308 24,57.059C24,54.944 24,50 24,50Z"/>
        </g>
        <g transform="matrix(-0.5,0,0,2.125,53,-63.25)">
            <path d="M24,50L16,50L16,57.059C16,57.308 16.421,57.548 17.172,57.724C17.922,57.901 18.939,58 20,58C20,58 20,58 20,58C21.061,58 22.078,57.901 22.828,57.724C23.579,57.548 24,57.308 24,57.059C24,54.944 24,50 24,50Z"/>
        </g>
        <g transform="matrix(-3.06162e-17,0.5,2.125,1.30119e-16,-74.25,21)">
            <path d="M24,52.823C24,51.784 20.42,50.941 16.004,50.941C16.001,50.941 16,50.941 16,50.941L16,58C16,58.25 16.421,58.489 17.172,58.666C17.922,58.842 18.939,58.941 20,58.941C20,58.941 20,58.941 20,58.941C21.061,58.941 22.078,58.842 22.828,58.666C23.579,58.489 24,58.25 24,58C24,56.733 24,54.449 24,52.823Z"/>
        </g>
        <g transform="matrix(-0.5,1.11022e-16,4.71845e-16,2.125,56,-78.25)">
            <path d="M24,50L16,50L16,57.059C16,57.308 16.421,57.548 17.172,57.724C17.922,57.901 18.939,58 20,58C20,58 20,58 20,58C21.061,58 22.078,57.901 22.828,57.724C23.579,57.548 24,57.308 24,57.059C24,54.944 24,50 24,50Z"/>
        </g>
        <g transform="matrix(-1.66667,0,0,1.66667,71.3333,-49.3333)">
            <circle cx="17" cy="41" r="3"/>
        </g>
    </g>
    <g transform="matrix(1,0,0,1,2,0)">
        <g transform="matrix(0.166667,0,0,4.25,15.6667,18.5)">
            <path d="M62,2.471C62,2.346 60.736,2.226 58.485,2.138C56.235,2.05 53.183,2 50,2C39.543,2 24.457,2 14,2C10.817,2 7.765,2.05 5.515,2.138C3.264,2.226 2,2.346 2,2.471C2,3.528 2,6 2,6L62,6L62,2.471Z"/>
        </g>
        <g transform="matrix(0.266667,0,0,0.75,12.4667,24.5)">
            <path d="M62,4.354C62,3.009 59.183,1.875 55.43,1.708C46.601,1.316 32,0.667 32,0.667C32,0.667 17.399,1.316 8.57,1.708C4.817,1.875 2,3.009 2,4.354C2,5.223 2,6 2,6L62,6L62,4.354Z"/>
        </g>
        <g transform="matrix(-0.5,0,0,2.125,28,-63.25)">
            <path d="M24,50L16,50L16,57.059C16,57.308 16.421,57.548 17.172,57.724C17.922,57.901 18.939,58 20,58C20,58 20,58 20,58C21.061,58 22.078,57.901 22.828,57.724C23.579,57.548 24,57.308 24,57.059C24,54.944 24,50 24,50Z"/>
        </g>
        <g transform="matrix(-0.5,0,0,2.125,34,-63.25)">
            <path d="M24,50L16,50L16,57.059C16,57.308 16.421,57.548 17.172,57.724C17.922,57.901 18.939,58 20,58C20,58 20,58 20,58C21.061,58 22.078,57.901 22.828,57.724C23.579,57.548 24,57.308 24,57.059C24,54.944 24,50 24,50Z"/>
        </g>
        <g transform="matrix(-0.5,0,0,2.125,25,-78.25)">
            <path d="M24,50L16,50L16,57.059C16,57.308 16.421,57.548 17.172,57.724C17.922,57.901 18.939,58 20,58C20,58 20,58 20,58C21.061,58 22.078,57.901 22.828,57.724C23.579,57.548 24,57.308 24,57.059C24,54.944 24,50 24,50Z"/>
        </g>
        <g transform="matrix(-0.5,0,0,2.125,37,-78.25)">
            <path d="M24,50L16,50L16,57.059C16,57.308 16.421,57.548 17.172,57.724C17.922,57.901 18.939,58 20,58C20,58 20,58 20,58C21.061,58 22.078,57.901 22.828,57.724C23.579,57.548 24,57.308 24,57.059C24,54.944 24,50 24,50Z"/>
        </g>
        <g transform="matrix(-1.66667,0,0,1.66667,49.3333,-49.3333)">
            <circle cx="17" cy="41" r="3"/>
        </g>
    </g>
    <path d="M64,0L64,64L-0,64L-0,0L64,0ZM4,10L4,60L8,60L8,10L4,10ZM52,10L12,10L12,60L52,60L52,10ZM56,10L56,60L60,60L60,10L56,10ZM39.048,1.82L39.05,1.818L44,6.768L42.586,8.182L39.048,4.644L35.51,8.182L34.096,6.768L39.046,1.818L39.048,1.82Z"/>
</svg>
