<?xml version="1.0" encoding="UTF-8" standalone="no"?>
<!DOCTYPE svg PUBLIC "-//W3C//DTD SVG 1.1//EN" "http://www.w3.org/Graphics/SVG/1.1/DTD/svg11.dtd">
<svg width="100%" height="100%" viewBox="0 0 64 64" version="1.1" xmlns="http://www.w3.org/2000/svg" xmlns:xlink="http://www.w3.org/1999/xlink" xml:space="preserve" xmlns:serif="http://www.serif.com/" style="fill-rule:evenodd;clip-rule:evenodd;stroke-linejoin:round;stroke-miterlimit:2;">
    <g transform="matrix(1,0,0,1,2,0)">
        <g transform="matrix(0.166667,0,0,4.25,15.6667,18.5)">
            <path d="M62,2.471C62,2.346 60.736,2.226 58.485,2.138C56.235,2.05 53.183,2 50,2C39.543,2 24.457,2 14,2C10.817,2 7.765,2.05 5.515,2.138C3.264,2.226 2,2.346 2,2.471C2,3.528 2,6 2,6L62,6L62,2.471Z"/>
        </g>
        <g transform="matrix(0.266667,0,0,0.75,12.4667,24.5)">
            <path d="M62,4.354C62,3.009 59.183,1.875 55.43,1.708C46.601,1.316 32,0.667 32,0.667C32,0.667 17.399,1.316 8.57,1.708C4.817,1.875 2,3.009 2,4.354C2,5.223 2,6 2,6L62,6L62,4.354Z"/>
        </g>
        <g transform="matrix(-0.5,0,0,2.125,28,-63.25)">
            <path d="M24,50L16,50L16,57.059C16,57.308 16.421,57.548 17.172,57.724C17.922,57.901 18.939,58 20,58C20,58 20,58 20,58C21.061,58 22.078,57.901 22.828,57.724C23.579,57.548 24,57.308 24,57.059C24,54.944 24,50 24,50Z"/>
        </g>
        <g transform="matrix(-0.5,0,0,2.125,34,-63.25)">
            <path d="M24,50L16,50L16,57.059C16,57.308 16.421,57.548 17.172,57.724C17.922,57.901 18.939,58 20,58C20,58 20,58 20,58C21.061,58 22.078,57.901 22.828,57.724C23.579,57.548 24,57.308 24,57.059C24,54.944 24,50 24,50Z"/>
        </g>
        <g transform="matrix(-0.5,0,0,2.125,25,-78.25)">
            <path d="M24,50L16,50L16,57.059C16,57.308 16.421,57.548 17.172,57.724C17.922,57.901 18.939,58 20,58C20,58 20,58 20,58C21.061,58 22.078,57.901 22.828,57.724C23.579,57.548 24,57.308 24,57.059C24,54.944 24,50 24,50Z"/>
        </g>
        <g transform="matrix(-0.5,0,0,2.125,37,-78.25)">
            <path d="M24,50L16,50L16,57.059C16,57.308 16.421,57.548 17.172,57.724C17.922,57.901 18.939,58 20,58C20,58 20,58 20,58C21.061,58 22.078,57.901 22.828,57.724C23.579,57.548 24,57.308 24,57.059C24,54.944 24,50 24,50Z"/>
        </g>
        <g transform="matrix(-1.66667,0,0,1.66667,49.3333,-49.3333)">
            <circle cx="17" cy="41" r="3"/>
        </g>
    </g>
    <g transform="matrix(1,0,0,1,1,0)">
        <g transform="matrix(0.166667,0,0,4.25,34.6667,18.5)">
            <path d="M62,2.471C62,2.346 60.736,2.226 58.485,2.138C56.235,2.05 53.183,2 50,2C39.543,2 24.457,2 14,2C10.817,2 7.765,2.05 5.515,2.138C3.264,2.226 2,2.346 2,2.471C2,3.528 2,6 2,6L62,6L62,2.471Z"/>
        </g>
        <g transform="matrix(0.266667,0,0,0.75,31.4667,24.5)">
            <path d="M62,4.354C62,3.009 59.183,1.875 55.43,1.708C46.601,1.316 32,0.667 32,0.667C32,0.667 17.399,1.316 8.57,1.708C4.817,1.875 2,3.009 2,4.354C2,5.223 2,6 2,6L62,6L62,4.354Z"/>
        </g>
        <g transform="matrix(-0.5,0,0,2.125,47,-63.25)">
            <path d="M24,50L16,50L16,57.059C16,57.308 16.421,57.548 17.172,57.724C17.922,57.901 18.939,58 20,58C20,58 20,58 20,58C21.061,58 22.078,57.901 22.828,57.724C23.579,57.548 24,57.308 24,57.059C24,54.944 24,50 24,50Z"/>
        </g>
        <g transform="matrix(-0.5,0,0,2.125,53,-63.25)">
            <path d="M24,50L16,50L16,57.059C16,57.308 16.421,57.548 17.172,57.724C17.922,57.901 18.939,58 20,58C20,58 20,58 20,58C21.061,58 22.078,57.901 22.828,57.724C23.579,57.548 24,57.308 24,57.059C24,54.944 24,50 24,50Z"/>
        </g>
        <g transform="matrix(-0.5,0,0,2.125,44,-78.25)">
            <path d="M24,50L16,50L16,57.059C16,57.308 16.421,57.548 17.172,57.724C17.922,57.901 18.939,58 20,58C20,58 20,58 20,58C21.061,58 22.078,57.901 22.828,57.724C23.579,57.548 24,57.308 24,57.059C24,54.944 24,50 24,50Z"/>
        </g>
        <g transform="matrix(-0.490239,0.0983147,0.417837,2.08352,34.9635,-77.7488)">
            <path d="M24,50L16,50L16,57.059C16,57.308 16.421,57.548 17.172,57.724C17.922,57.901 18.939,58 20,58C20,58 20,58 20,58C21.061,58 22.078,57.901 22.828,57.724C23.579,57.548 24,57.308 24,57.059C24,54.944 24,50 24,50Z"/>
        </g>
        <g transform="matrix(-1.66667,0,0,1.66667,70.3333,-49.3333)">
            <circle cx="17" cy="41" r="3"/>
        </g>
    </g>
    <path d="M64,0L64,64L-0,64L-0,0L64,0ZM4,10L4,60L8,60L8,10L4,10ZM52,10L12,10L12,60L52,60L52,10ZM56,10L56,60L60,60L60,10L56,10ZM24.952,8.362L24.954,8.364L29.904,3.414L28.49,2L24.952,5.538L21.414,2L20,3.414L24.95,8.364L24.952,8.362Z"/>
</svg>
