<?xml version="1.0" encoding="UTF-8" standalone="no"?>
<!DOCTYPE svg PUBLIC "-//W3C//DTD SVG 1.1//EN" "http://www.w3.org/Graphics/SVG/1.1/DTD/svg11.dtd">
<svg width="100%" height="100%" viewBox="0 0 64 64" version="1.1" xmlns="http://www.w3.org/2000/svg" xmlns:xlink="http://www.w3.org/1999/xlink" xml:space="preserve" xmlns:serif="http://www.serif.com/" style="fill-rule:evenodd;clip-rule:evenodd;stroke-linejoin:round;stroke-miterlimit:2;">
    <path d="M64,0L64,64L-0,64L-0,0L64,0ZM4,10L4,60L8,60L8,10L4,10ZM52,10L12,10L12,60L52,60L52,10ZM56,10L56,60L60,60L60,10L56,10ZM24.952,8.362L24.954,8.364L29.904,3.414L28.49,2L24.952,5.538L21.414,2L20,3.414L24.95,8.364L24.952,8.362ZM39.048,1.82L39.05,1.818L44,6.768L42.586,8.182L39.048,4.644L35.51,8.182L34.096,6.768L39.046,1.818L39.048,1.82Z"/>
    <g transform="matrix(4.25,0,0,1,-109.25,-2)">
        <rect x="29" y="14" width="4" height="46"/>
    </g>
    <g transform="matrix(4.25,0,0,1,-90.25,-2)">
        <rect x="29" y="14" width="4" height="46"/>
    </g>
</svg>
