<?xml version="1.0" encoding="UTF-8" standalone="no"?>
<!DOCTYPE svg PUBLIC "-//W3C//DTD SVG 1.1//EN" "http://www.w3.org/Graphics/SVG/1.1/DTD/svg11.dtd">
<svg width="100%" height="100%" viewBox="0 0 64 64" version="1.1" xmlns="http://www.w3.org/2000/svg" xmlns:xlink="http://www.w3.org/1999/xlink" xml:space="preserve" xmlns:serif="http://www.serif.com/" style="fill-rule:evenodd;clip-rule:evenodd;stroke-linejoin:round;stroke-miterlimit:2;">
    <g transform="matrix(2,0,0,1,-44,-2)">
        <rect x="29" y="14" width="4" height="46"/>
    </g>
    <path d="M64,0L64,64L-0,64L-0,0L64,0ZM4,10L4,60L8,60L8,10L4,10ZM52,10L12,10L12,60L52,60L52,10ZM56,10L56,60L60,60L60,10L56,10ZM25,3.785L26.785,2L28.165,3.38L26.38,5.165L28.165,6.95L26.785,8.33L25,6.545L23.215,8.33L21.835,6.95L23.62,5.165L21.835,3.38L23.215,2L25,3.785ZM41,3.785L42.785,2L44.165,3.38L42.38,5.165L44.165,6.95L42.785,8.33L41,6.545L39.215,8.33L37.835,6.95L39.62,5.165L37.835,3.38L39.215,2L41,3.785Z"/>
    <g transform="matrix(4.25,0,0,1,-90.25,-2)">
        <rect x="29" y="14" width="4" height="46"/>
    </g>
</svg>
