<?xml version="1.0" encoding="UTF-8" standalone="no"?>
<!DOCTYPE svg PUBLIC "-//W3C//DTD SVG 1.1//EN" "http://www.w3.org/Graphics/SVG/1.1/DTD/svg11.dtd">
<svg width="100%" height="100%" viewBox="0 0 64 64" version="1.1" xmlns="http://www.w3.org/2000/svg" xmlns:xlink="http://www.w3.org/1999/xlink" xml:space="preserve" xmlns:serif="http://www.serif.com/" style="fill-rule:evenodd;clip-rule:evenodd;stroke-linejoin:round;stroke-miterlimit:2;">
    <g transform="matrix(1.06667,0,0,1,-2.13333,58)">
        <rect x="2" y="2" width="60" height="4"/>
    </g>
    <path d="M23,50L-0,50L-0,46L27,46L27,58L-0,58L-0,54L23,54L23,50Z"/>
    <g transform="matrix(1,0,0,1,0,-14)">
        <path d="M23,50L-0,50L-0,46L27,46L27,58L-0,58L-0,54L23,54L23,50Z"/>
    </g>
    <g transform="matrix(1,0,0,1,0,-28)">
        <path d="M23,50L-0,50L-0,46L27,46L27,58L-0,58L-0,54L23,54L23,50Z"/>
    </g>
    <g transform="matrix(1,0,0,1,0,-42)">
        <path d="M23,50L-0,50L-0,46L27,46L27,58L-0,58L-0,54L23,54L23,50Z"/>
    </g>
    <g transform="matrix(0.05,0,0,15.5,28.9,-31)">
        <rect x="2" y="2" width="60" height="4"/>
    </g>
    <g transform="matrix(0.504104,0,0,0.75,-1.25445,-1.5)">
        <rect x="2" y="2" width="60" height="4"/>
    </g>
    <circle cx="21" cy="10" r="1"/>
    <g transform="matrix(1,0,0,1,0,14)">
        <circle cx="21" cy="10" r="1"/>
    </g>
    <g transform="matrix(1,0,0,1,0,28)">
        <circle cx="21" cy="10" r="1"/>
    </g>
    <g transform="matrix(1,0,0,1,0,42)">
        <circle cx="21" cy="10" r="1"/>
    </g>
    <g transform="matrix(1,0,0,1,-3,0)">
        <circle cx="21" cy="10" r="1"/>
    </g>
    <g transform="matrix(1,0,0,1,-3,14)">
        <circle cx="21" cy="10" r="1"/>
    </g>
    <g transform="matrix(1,0,0,1,-3,28)">
        <circle cx="21" cy="10" r="1"/>
    </g>
    <g transform="matrix(1,0,0,1,-3,42)">
        <circle cx="21" cy="10" r="1"/>
    </g>
    <g transform="matrix(1,0,0,1,-6,0)">
        <circle cx="21" cy="10" r="1"/>
    </g>
    <g transform="matrix(1,0,0,1,-6,14)">
        <circle cx="21" cy="10" r="1"/>
    </g>
    <g transform="matrix(1,0,0,1,-6,28)">
        <circle cx="21" cy="10" r="1"/>
    </g>
    <g transform="matrix(1,0,0,1,-6,42)">
        <circle cx="21" cy="10" r="1"/>
    </g>
    <path d="M39,18.938L39,17L41,17L41,15L39,15L39,13L45,13L45,15L43,15L43,17L45,17L45,18.938C46.793,20.149 48,22.411 48,25L48,57C48,58.657 46.657,60 45,60C43.168,60 40.832,60 39,60C37.343,60 36,58.657 36,57C36,48.866 36,25 36,25L36,24.955C36.014,22.385 37.218,20.142 39,18.938ZM40,25C40,23.689 40.896,22.624 42,22.624C43.104,22.624 44,23.689 44,25C44,25 44,56 44,56L40,56L40,25Z"/>
    <g transform="matrix(1,0,0,1,16,0)">
        <path d="M39,18.938L39,17L41,17L41,15L39,15L39,13L45,13L45,15L43,15L43,17L45,17L45,18.938C46.793,20.149 48,22.411 48,25L48,57C48,58.657 46.657,60 45,60C43.168,60 40.832,60 39,60C37.343,60 36,58.657 36,57C36,48.866 36,25 36,25L36,24.955C36.014,22.385 37.218,20.142 39,18.938ZM40,25C40,23.689 40.896,22.624 42,22.624C43.104,22.624 44,23.689 44,25C44,25 44,56 44,56L40,56L40,25Z"/>
    </g>
</svg>
