<?xml version="1.0" encoding="UTF-8" standalone="no"?>
<!DOCTYPE svg PUBLIC "-//W3C//DTD SVG 1.1//EN" "http://www.w3.org/Graphics/SVG/1.1/DTD/svg11.dtd">
<svg width="100%" height="100%" viewBox="0 0 64 64" version="1.1" xmlns="http://www.w3.org/2000/svg" xmlns:xlink="http://www.w3.org/1999/xlink" xml:space="preserve" xmlns:serif="http://www.serif.com/" style="fill-rule:evenodd;clip-rule:evenodd;stroke-linejoin:round;stroke-miterlimit:2;">
    <g transform="matrix(1.06667,0,0,1,-2.13333,58)">
        <rect x="2" y="2" width="60" height="4"/>
    </g>
    <path d="M23,50L-0,50L-0,46L27,46L27,58L-0,58L-0,54L23,54L23,50Z"/>
    <g transform="matrix(1,0,0,1,0,-14)">
        <path d="M23,50L-0,50L-0,46L27,46L27,58L-0,58L-0,54L23,54L23,50Z"/>
    </g>
    <g transform="matrix(1,0,0,1,0,-28)">
        <path d="M23,50L-0,50L-0,46L27,46L27,58L-0,58L-0,54L23,54L23,50Z"/>
    </g>
    <g transform="matrix(1,0,0,1,0,-42)">
        <path d="M23,50L-0,50L-0,46L27,46L27,58L-0,58L-0,54L23,54L23,50Z"/>
    </g>
    <g transform="matrix(0.05,0,0,15.5,28.9,-31)">
        <rect x="2" y="2" width="60" height="4"/>
    </g>
    <g transform="matrix(0.504104,0,0,0.75,-1.25445,-1.5)">
        <rect x="2" y="2" width="60" height="4"/>
    </g>
    <g transform="matrix(1,0,0,1,1.00653,4.29026e-11)">
        <g transform="matrix(-0.166667,0,0,4.25,56.3333,18.5)">
            <path d="M62,2.471C62,2.346 60.736,2.226 58.485,2.138C56.235,2.05 53.183,2 50,2C39.543,2 24.457,2 14,2C10.817,2 7.765,2.05 5.515,2.138C3.264,2.226 2,2.346 2,2.471C2,3.528 2,6 2,6L62,6L62,2.471Z"/>
        </g>
        <g transform="matrix(-0.25,0,0,0.75,59.5,24.5)">
            <path d="M62,4.309C62,2.984 59.079,1.859 55.144,1.67C46.943,1.275 34.308,0.667 34.308,0.667C34.308,0.667 18.52,1.318 9.017,1.71C5.009,1.876 2,3.011 2,4.357C2,5.225 2,6 2,6L62,6L62,4.309Z"/>
        </g>
        <g transform="matrix(0.5,0,0,2.125,44,-63.25)">
            <path d="M24,50L16,50L16,57.059C16,57.308 16.421,57.548 17.172,57.724C17.922,57.901 18.939,58 20,58C20,58 20,58 20,58C21.061,58 22.078,57.901 22.828,57.724C23.579,57.548 24,57.308 24,57.059C24,54.944 24,50 24,50Z"/>
        </g>
        <g transform="matrix(0.5,0,0,2.125,38,-63.25)">
            <path d="M24,50L16,50L16,57.059C16,57.308 16.421,57.548 17.172,57.724C17.922,57.901 18.939,58 20,58C20,58 20,58 20,58C21.061,58 22.078,57.901 22.828,57.724C23.579,57.548 24,57.308 24,57.059C24,54.944 24,50 24,50Z"/>
        </g>
        <g transform="matrix(0.5,0,0,2.125,47,-78.25)">
            <path d="M24,50L16,50L16,57.059C16,57.308 16.421,57.548 17.172,57.724C17.922,57.901 18.939,58 20,58C20,58 20,58 20,58C21.061,58 22.078,57.901 22.828,57.724C23.579,57.548 24,57.308 24,57.059C24,54.944 24,50 24,50Z"/>
        </g>
        <g transform="matrix(-1,0,0,1,62,0)">
            <rect x="15" y="28" width="3" height="7"/>
        </g>
        <g transform="matrix(0.12941,0.482963,-2.05259,0.54999,151.524,-4.41912)">
            <path d="M24,50L16,50L16,57.059C16,57.308 16.421,57.548 17.172,57.724C17.922,57.901 18.939,58 20,58C20,58 20,58 20,58C21.061,58 22.078,57.901 22.828,57.724C23.579,57.548 24,57.308 24,57.059C24,54.944 24,50 24,50Z"/>
        </g>
        <g transform="matrix(1.66667,0,0,1.66667,20.6667,-49.3333)">
            <circle cx="17" cy="41" r="3"/>
        </g>
    </g>
    <circle cx="21" cy="10" r="1"/>
    <g transform="matrix(1,0,0,1,0,14)">
        <circle cx="21" cy="10" r="1"/>
    </g>
    <g transform="matrix(1,0,0,1,0,28)">
        <circle cx="21" cy="10" r="1"/>
    </g>
    <g transform="matrix(1,0,0,1,0,42)">
        <circle cx="21" cy="10" r="1"/>
    </g>
    <g transform="matrix(1,0,0,1,-3,0)">
        <circle cx="21" cy="10" r="1"/>
    </g>
    <g transform="matrix(1,0,0,1,-3,14)">
        <circle cx="21" cy="10" r="1"/>
    </g>
    <g transform="matrix(1,0,0,1,-3,28)">
        <circle cx="21" cy="10" r="1"/>
    </g>
    <g transform="matrix(1,0,0,1,-3,42)">
        <circle cx="21" cy="10" r="1"/>
    </g>
    <g transform="matrix(1,0,0,1,-6,0)">
        <circle cx="21" cy="10" r="1"/>
    </g>
    <g transform="matrix(1,0,0,1,-6,14)">
        <circle cx="21" cy="10" r="1"/>
    </g>
    <g transform="matrix(1,0,0,1,-6,28)">
        <circle cx="21" cy="10" r="1"/>
    </g>
    <g transform="matrix(1,0,0,1,-6,42)">
        <circle cx="21" cy="10" r="1"/>
    </g>
    <g transform="matrix(1,0,0,1.2,0,-6.8)">
        <rect x="34" y="34" width="6" height="5"/>
    </g>
    <g transform="matrix(-0.0666667,0,0,13.5,40.1333,-21)">
        <rect x="2" y="2" width="60" height="4"/>
    </g>
    <g transform="matrix(-0.466667,0,0,1,64.9333,4)">
        <rect x="2" y="2" width="60" height="4"/>
    </g>
</svg>
