<?xml version="1.0" encoding="UTF-8" standalone="no"?>
<!DOCTYPE svg PUBLIC "-//W3C//DTD SVG 1.1//EN" "http://www.w3.org/Graphics/SVG/1.1/DTD/svg11.dtd">
<svg width="100%" height="100%" viewBox="0 0 64 64" version="1.1" xmlns="http://www.w3.org/2000/svg" xmlns:xlink="http://www.w3.org/1999/xlink" xml:space="preserve" xmlns:serif="http://www.serif.com/" style="fill-rule:evenodd;clip-rule:evenodd;stroke-linejoin:round;stroke-miterlimit:2;">
    <g transform="matrix(1,0,0,1,-36,0)">
        <path d="M64,0L64,64L-0,64L-0,0L64,0ZM4,10L4,60L8,60L8,10L4,10ZM52,10L12,10L12,60L52,60L52,10ZM56,10L56,60L60,60L60,10L56,10ZM24.952,8.362L24.954,8.364L29.904,3.414L28.49,2L24.952,5.538L21.414,2L20,3.414L24.95,8.364L24.952,8.362ZM39.048,1.82L39.05,1.818L44,6.768L42.586,8.182L39.048,4.644L35.51,8.182L34.096,6.768L39.046,1.818L39.048,1.82Z"/>
    </g>
    <g transform="matrix(1,0,0,1,-13.9935,0)">
        <g transform="matrix(-0.166667,0,0,4.25,56.3333,18.5)">
            <path d="M62,2.471C62,2.346 60.736,2.226 58.485,2.138C56.235,2.05 53.183,2 50,2C39.543,2 24.457,2 14,2C10.817,2 7.765,2.05 5.515,2.138C3.264,2.226 2,2.346 2,2.471C2,3.528 2,6 2,6L62,6L62,2.471Z"/>
        </g>
        <g transform="matrix(-0.25,0,0,0.75,59.5,24.5)">
            <path d="M62,4.309C62,2.984 59.079,1.859 55.144,1.67C46.943,1.275 34.308,0.667 34.308,0.667C34.308,0.667 18.52,1.318 9.017,1.71C5.009,1.876 2,3.011 2,4.357C2,5.225 2,6 2,6L62,6L62,4.309Z"/>
        </g>
        <g transform="matrix(0.5,0,0,2.125,44,-63.25)">
            <path d="M24,50L16,50L16,57.059C16,57.308 16.421,57.548 17.172,57.724C17.922,57.901 18.939,58 20,58C20,58 20,58 20,58C21.061,58 22.078,57.901 22.828,57.724C23.579,57.548 24,57.308 24,57.059C24,54.944 24,50 24,50Z"/>
        </g>
        <g transform="matrix(0.5,0,0,2.125,38,-63.25)">
            <path d="M24,50L16,50L16,57.059C16,57.308 16.421,57.548 17.172,57.724C17.922,57.901 18.939,58 20,58C20,58 20,58 20,58C21.061,58 22.078,57.901 22.828,57.724C23.579,57.548 24,57.308 24,57.059C24,54.944 24,50 24,50Z"/>
        </g>
        <g transform="matrix(2.77556e-17,-0.5,2.26961,4.44089e-16,-63.6437,47)">
            <path d="M24,52.713L22,52.713C20.409,52.713 18.883,52.852 17.757,53.1C16.632,53.348 16,53.684 16,54.035C16,54.998 16,56.277 16,57.119C16,57.605 17.791,58 20,58C20,58 20,58 20,58C22.209,58 24,57.605 24,57.119C24,55.615 24,52.713 24,52.713Z"/>
        </g>
        <g transform="matrix(1,0,0,1,13.9935,0)">
            <rect x="42" y="28" width="3.007" height="8"/>
        </g>
        <g transform="matrix(-1,0,0,1,62,0)">
            <rect x="15" y="28" width="3" height="7"/>
        </g>
        <g transform="matrix(0.12941,0.482963,-2.05259,0.54999,151.524,-4.41912)">
            <path d="M24,50L16,50L16,57.059C16,57.308 16.421,57.548 17.172,57.724C17.922,57.901 18.939,58 20,58C20,58 20,58 20,58C21.061,58 22.078,57.901 22.828,57.724C23.579,57.548 24,57.308 24,57.059C24,54.944 24,50 24,50Z"/>
        </g>
        <g transform="matrix(1.66667,0,0,1.66667,20.6667,-49.3333)">
            <circle cx="17" cy="41" r="3"/>
        </g>
    </g>
    <g transform="matrix(1.06667,0,0,1,-2.13333,58)">
        <rect x="2" y="2" width="60" height="4"/>
    </g>
    <path d="M53,54C54.656,54 56,55.344 56,57C56,58.656 54.656,60 53,60C51.344,60 50,58.656 50,57C50,55.344 51.344,54 53,54ZM53,55.953C53.552,55.953 54,56.412 54,56.977C54,57.541 53.552,58 53,58C52.448,58 52,57.541 52,56.977C52,56.412 52.448,55.953 53,55.953Z"/>
    <g transform="matrix(1,0,0,0.75,0,14.25)">
        <rect x="49" y="49" width="15" height="4"/>
    </g>
    <g transform="matrix(0.2,0,0,3.5,41.2,-134.5)">
        <rect x="49" y="49" width="15" height="4"/>
    </g>
    <g transform="matrix(0.477411,0,0,2.5,33.4457,-82.5)">
        <rect x="49" y="49" width="15" height="4"/>
    </g>
    <g transform="matrix(0.477411,0,0,2.5,33.4457,-93.5)">
        <rect x="49" y="49" width="15" height="4"/>
    </g>
    <g transform="matrix(0.477411,0,0,2.5,33.4457,-104.5)">
        <rect x="49" y="49" width="15" height="4"/>
    </g>
    <g transform="matrix(0.933333,0,0,11.5,-45.7333,-551.5)">
        <rect x="49" y="49" width="15" height="4"/>
    </g>
</svg>
