<?xml version="1.0" encoding="UTF-8" standalone="no"?>
<!DOCTYPE svg PUBLIC "-//W3C//DTD SVG 1.1//EN" "http://www.w3.org/Graphics/SVG/1.1/DTD/svg11.dtd">
<svg width="100%" height="100%" viewBox="0 0 64 64" version="1.1" xmlns="http://www.w3.org/2000/svg" xmlns:xlink="http://www.w3.org/1999/xlink" xml:space="preserve" xmlns:serif="http://www.serif.com/" style="fill-rule:evenodd;clip-rule:evenodd;stroke-linejoin:round;stroke-miterlimit:2;">
    <g transform="matrix(1.06667,0,0,1,-2.13333,-2)">
        <rect x="2" y="2" width="60" height="4"/>
    </g>
    <g transform="matrix(1.06667,0,0,1,-2.13333,58)">
        <rect x="2" y="2" width="60" height="4"/>
    </g>
    <path d="M20,46L20,38L0,36L0,32L20,34L12,22L0,22L0,18L14,18L24,34L24,54L22,54L22,58C22,59.105 21.105,60 20,60L16,60C14.895,60 14,59.105 14,58L14,54L0,54L0,50L20,50L20,48L0,48L0,46L20,46Z"/>
    <g transform="matrix(1,0,0,1,-5,1)">
        <circle cx="17" cy="41" r="3"/>
    </g>
    <g transform="matrix(0.666667,0,0,0.666667,5.66667,14.6667)">
        <circle cx="17" cy="41" r="3"/>
    </g>
    <path d="M44,48L44,50L64,50L64,54L50,54L50,58C50,59.105 49.105,60 48,60L44,60C42.895,60 42,59.105 42,58L42,54L40,54L40,34L50,18L64,18L64,22L52,22L44,34L64,32L64,36L44,38L44,46L64,46L64,48L44,48Z"/>
    <g transform="matrix(-1,0,0,1,69,1)">
        <circle cx="17" cy="41" r="3"/>
    </g>
    <g transform="matrix(-0.666667,0,0,0.666667,58.3333,14.6667)">
        <circle cx="17" cy="41" r="3"/>
    </g>
    <path d="M28,37L28,27.167C24.47,25.623 22,22.097 22,18C22,12.481 26.481,8 32,8C37.519,8 42,12.481 42,18C42,22.097 39.53,25.623 36,27.167L36,37L41,37L41,39L36,39L36,60L28,60L28,39L23,39L23,37L28,37ZM32,9.818C36.516,9.818 40.182,13.484 40.182,18C40.182,22.516 36.516,26.182 32,26.182C27.484,26.182 23.818,22.516 23.818,18C23.818,13.484 27.484,9.818 32,9.818Z"/>
    <g transform="matrix(1,0,0,1,0.5,-1)">
        <path d="M32.5,12L29.5,12L24.5,21L31.5,20L29.5,26L31.5,26L38,16L30.5,17L32.5,12Z"/>
    </g>
</svg>
