<?xml version="1.0" encoding="UTF-8" standalone="no"?>
<!DOCTYPE svg PUBLIC "-//W3C//DTD SVG 1.1//EN" "http://www.w3.org/Graphics/SVG/1.1/DTD/svg11.dtd">
<svg width="100%" height="100%" viewBox="0 0 64 64" version="1.1" xmlns="http://www.w3.org/2000/svg" xmlns:xlink="http://www.w3.org/1999/xlink" xml:space="preserve" xmlns:serif="http://www.serif.com/" style="fill-rule:evenodd;clip-rule:evenodd;stroke-linejoin:round;stroke-miterlimit:2;">
    <g transform="matrix(1.06667,0,0,1,-2.13333,-2)">
        <rect x="2" y="2" width="60" height="4"/>
    </g>
    <g transform="matrix(0.466667,0,0,2.07619,17.0667,1.84762)">
        <rect x="2" y="2" width="60" height="4"/>
    </g>
    <g transform="matrix(0.0666667,0,0,1,19.8667,1)">
        <rect x="2" y="2" width="60" height="4"/>
    </g>
    <g transform="matrix(0.0666667,0,0,1,39.8667,1)">
        <rect x="2" y="2" width="60" height="4"/>
    </g>
    <g transform="matrix(1,0,0,1,-28,-2)">
        <text x="52.767px" y="13.899px" style="font-family:'Verdana-Bold', 'Verdana', sans-serif;font-weight:700;font-size:5px;fill:white;">INFO</text>
    </g>
    <g transform="matrix(1.06667,0,0,1,-2.13333,58)">
        <rect x="2" y="2" width="60" height="4"/>
    </g>
    <g transform="matrix(0.4,0,0,0.5,31.2,45)">
        <rect x="2" y="2" width="60" height="4"/>
    </g>
    <g transform="matrix(1,0,0,1,30,2)">
        <path d="M2,34L2,30L22,32L14,20L2,20L2,16L16,16L26,32L26,52L2,52L2,48L22,48L22,36L2,34Z"/>
    </g>
    <g transform="matrix(1,0,0,1,30,2)">
        <path d="M24,50L16,50L16,56C16,57.105 16.895,58 18,58L22,58C23.105,58 24,57.105 24,56L24,50Z"/>
    </g>
    <g transform="matrix(1,0,0,1,27,1)">
        <circle cx="17" cy="41" r="3"/>
    </g>
    <g transform="matrix(0.666667,0,0,0.666667,37.6667,14.6667)">
        <circle cx="17" cy="41" r="3"/>
    </g>
    <g transform="matrix(-0.4,0,0,0.5,32.8,45)">
        <rect x="2" y="2" width="60" height="4"/>
    </g>
    <g transform="matrix(-1,0,0,1,34,2)">
        <path d="M2,34L2,30L22,32L14,20L2,20L2,16L16,16L26,32L26,52L2,52L2,48L22,48L22,36L2,34Z"/>
    </g>
    <g transform="matrix(-1,0,0,1,34,2)">
        <path d="M24,50L16,50L16,56C16,57.105 16.895,58 18,58L22,58C23.105,58 24,57.105 24,56L24,50Z"/>
    </g>
    <g transform="matrix(-1,0,0,1,37,1)">
        <circle cx="17" cy="41" r="3"/>
    </g>
    <g transform="matrix(-0.666667,0,0,0.666667,26.3333,14.6667)">
        <circle cx="17" cy="41" r="3"/>
    </g>
    <g transform="matrix(-1.5,0,0,1.5,48,-34)">
        <circle cx="17" cy="41" r="3"/>
    </g>
</svg>
